<svg width="24" height="24" viewBox="0 0 24 24" fill="none" xmlns="http://www.w3.org/2000/svg">
<path d="M12 1.99896C17.5237 1.99896 22.0015 6.47681 22.0015 12.0005C22.0015 17.5242 17.5237 22.0021 12 22.0021C6.47629 22.0021 1.99844 17.5242 1.99844 12.0005C1.99844 6.47681 6.47629 1.99896 12 1.99896ZM12 3.49896C7.30472 3.49896 3.49844 7.30524 3.49844 12.0005C3.49844 16.6958 7.30472 20.5021 12 20.5021C16.6953 20.5021 20.5015 16.6958 20.5015 12.0005C20.5015 7.30524 16.6953 3.49896 12 3.49896ZM8.46173 14.7838C9.31087 15.8616 10.6019 16.5021 12 16.5021C13.3962 16.5021 14.6857 15.8633 15.5349 14.788C15.7917 14.4629 16.2633 14.4076 16.5884 14.6643C16.9134 14.921 16.9688 15.3927 16.7121 15.7177C15.5813 17.1494 13.8601 18.0021 12 18.0021C10.1373 18.0021 8.41411 17.1471 7.28351 15.7122C7.02716 15.3868 7.0831 14.9152 7.40846 14.6589C7.73382 14.4025 8.20538 14.4585 8.46173 14.7838ZM9.00044 8.75115C9.69041 8.75115 10.2497 9.31048 10.2497 10.0004C10.2497 10.6904 9.69041 11.2497 9.00044 11.2497C8.31048 11.2497 7.75115 10.6904 7.75115 10.0004C7.75115 9.31048 8.31048 8.75115 9.00044 8.75115ZM15.0004 8.75115C15.6904 8.75115 16.2497 9.31048 16.2497 10.0004C16.2497 10.6904 15.6904 11.2497 15.0004 11.2497C14.3105 11.2497 13.7512 10.6904 13.7512 10.0004C13.7512 9.31048 14.3105 8.75115 15.0004 8.75115Z" fill="#8A8A8A"/>
</svg>
