<svg width="24" height="24" viewBox="0 0 24 24" fill="none" xmlns="http://www.w3.org/2000/svg">
<path d="M11.7716 3.74349C14.1131 1.39991 17.9121 1.39991 20.2552 3.74305C22.5383 6.02612 22.5968 9.69133 20.4308 12.0453L20.2427 12.2426L11.4426 21.0408L11.4061 21.0711C9.94483 22.3879 7.69083 22.3431 6.28346 20.9357C4.96444 19.6167 4.84232 17.554 5.91711 16.0973C5.94045 16.052 5.9687 16.0082 6.00191 15.9671L6.05547 15.9074L6.14237 15.8197L6.28346 15.6718L6.28637 15.6747L13.7221 8.22038C13.988 7.95376 14.4047 7.929 14.6986 8.14646L14.7828 8.21897C15.0494 8.48488 15.0742 8.90151 14.8567 9.19541L14.7842 9.27963L7.18957 16.8927C6.47193 17.7683 6.52181 19.0626 7.33921 19.88C8.16827 20.7091 9.48792 20.7485 10.3637 19.9984L19.1964 11.168C20.9519 9.41031 20.9519 6.56107 19.1945 4.80371C17.4921 3.10127 14.7649 3.04807 12.9985 4.64411L12.8306 4.80371L12.818 4.81802L3.2817 14.3543C2.98881 14.6472 2.51394 14.6472 2.22104 14.3543C1.95478 14.0881 1.93057 13.6714 2.14843 13.3778L2.22104 13.2937L11.7699 3.74305L11.7716 3.74349Z" fill="#8A8A8A"/>
</svg>
