<svg width="20" height="20" viewBox="0 0 20 20" fill="none" xmlns="http://www.w3.org/2000/svg">
<path d="M1.66667 11.3043L10.8333 11.3052C11.7115 11.3052 12.4318 12.0143 12.4954 12.9145L12.5 13.0443V15.2174C12.4992 18.8696 8.9275 20 6.25 20C3.62605 20 0.142542 18.9143 0.0042512 15.4335L0 15.2174V13.0435C0 12.1271 0.680331 11.3756 1.54234 11.3091L1.66667 11.3043ZM18.3333 11.3043L18.4577 11.3091C19.2766 11.3722 19.9315 12.0537 19.995 12.9073L20 13.0435V14.7826C19.9992 18.0513 17.1417 19.1304 15 19.1304C14.1183 19.1304 13.1175 18.9435 12.2425 18.5C12.5075 18.1713 12.7317 17.8061 12.9067 17.3974C13.7047 17.7626 14.5658 17.8195 14.9298 17.8255L15.1703 17.8229C16.0334 17.7919 18.6123 17.4884 18.7447 14.9849L18.75 14.7826V13.0435C18.75 12.8301 18.6019 12.6525 18.408 12.6157L18.3333 12.6087L13.2908 12.6096C13.2208 12.1736 13.0462 11.7769 12.7954 11.4439L12.6833 11.3052L18.3333 11.3043ZM1.66667 12.6087L1.58279 12.6174C1.47913 12.6394 1.40833 12.6981 1.37167 12.7357C1.33567 12.7739 1.2794 12.8472 1.25833 12.9556L1.25 13.0435V15.2174C1.25 16.3817 1.73917 17.2426 2.74583 17.8478C3.57613 18.3484 4.73696 18.6504 5.96543 18.691L6.25 18.6957L6.61239 18.6868C7.87955 18.6277 11.095 18.2028 11.2446 15.4194L11.25 15.2165V13.0443C11.25 12.8318 11.1019 12.6536 10.908 12.6166L10.8333 12.6096L1.66667 12.6087ZM6.25 0C8.78167 0 10.8333 2.14174 10.8333 4.78261C10.8333 7.42348 8.78167 9.56522 6.25 9.56522C3.71833 9.56522 1.66667 7.42348 1.66667 4.78261C1.66667 2.14174 3.71833 0 6.25 0ZM15.4167 1.73913C17.4875 1.73913 19.1667 3.4913 19.1667 5.65217C19.1667 7.81304 17.4875 9.56522 15.4167 9.56522C13.3458 9.56522 11.6667 7.81304 11.6667 5.65217C11.6667 3.4913 13.3458 1.73913 15.4167 1.73913ZM6.25 1.30435C4.41167 1.30435 2.91667 2.86435 2.91667 4.78261C2.91667 6.70087 4.41167 8.26087 6.25 8.26087C8.08833 8.26087 9.58333 6.70087 9.58333 4.78261C9.58333 2.86435 8.08833 1.30435 6.25 1.30435ZM15.4167 3.04348C14.0383 3.04348 12.9167 4.21391 12.9167 5.65217C12.9167 7.09043 14.0383 8.26087 15.4167 8.26087C16.795 8.26087 17.9167 7.09043 17.9167 5.65217C17.9167 4.21391 16.795 3.04348 15.4167 3.04348Z" fill="white"/>
</svg>
